<svg width="70" height="70" viewBox="0 0 75 75" fill="none" xmlns="http://www.w3.org/2000/svg">
<g clip-path="url(#clip0)">
<path d="M71.9374 51.4717L52.3751 31.7661L54.5462 21.0724C55.1065 21.2911 55.7021 21.4054 56.3034 21.4098H56.3182C59.0806 21.4423 61.3464 19.2295 61.3791 16.4671C61.4119 13.7047 59.1989 11.4389 56.4365 11.4062C53.6741 11.3736 51.4083 13.5864 51.3756 16.3488C51.3686 16.9399 51.4664 17.5275 51.6646 18.0845L40.1726 19.487L21.4272 0.643932C21.1972 0.409305 20.8833 0.27585 20.5548 0.273224C20.2304 0.274923 19.9198 0.404053 19.6898 0.632811L16.1854 4.11747C15.703 4.6 15.703 5.3822 16.1854 5.86474L18.071 7.77759C10.7656 21.211 13.1385 37.8462 23.9084 48.7013C24.0073 48.7958 24.1219 48.8723 24.247 48.9274C24.1692 49.3455 24.1286 49.7698 24.1259 50.1952V64.5293H9.29761C5.88709 64.5333 3.12316 67.2972 3.11914 70.7077V73.1791C3.11914 73.8615 3.67242 74.4148 4.35483 74.4148H61.1967C61.8791 74.4148 62.4324 73.8615 62.4324 73.1791V70.7077C62.4284 67.2972 59.6645 64.5333 56.254 64.5293H41.4256V58.1766C43.7486 58.6637 46.1154 58.9121 48.4889 58.918C54.1842 58.9118 59.7888 57.492 64.8 54.7858L66.6956 56.6925C66.9256 56.9271 67.2394 57.0606 67.568 57.0632C67.8923 57.0615 68.2029 56.9324 68.4329 56.7036L71.9374 53.219C72.4198 52.7364 72.4198 51.9542 71.9374 51.4717ZM54.5759 14.7148C55.5436 13.7522 57.1084 13.7565 58.0709 14.7242C59.0335 15.6919 59.0292 17.2567 58.0615 18.2192C57.5982 18.68 56.9714 18.9385 56.3181 18.9384H56.3106C54.9458 18.9313 53.845 17.8191 53.8521 16.4542C53.8555 15.8008 54.1174 15.1755 54.5807 14.7148H54.5759ZM51.6671 22.8345L50.2806 29.6592L47.5571 26.9197L51.6671 22.8345ZM50.2633 20.745L45.8148 25.1675L42.3734 21.7076L50.2633 20.745ZM56.254 67.0006C58.3013 67.0006 59.961 68.6603 59.961 70.7077V71.9434H5.59053V70.7077C5.59053 68.6603 7.25022 67.0006 9.29761 67.0006H56.254ZM38.9542 62.0579V64.5293H26.5973V62.0579H38.9542ZM26.5973 59.5865V50.1952C26.5973 47.1974 29.369 44.7582 32.7758 44.7582C36.1826 44.7582 38.9542 47.1974 38.9542 50.1952V59.5865H26.5973ZM41.4256 55.657V50.1952C41.4256 45.8345 37.5456 42.2868 32.7758 42.2868C29.6918 42.2395 26.808 43.8093 25.1738 46.4251C15.7723 36.5231 13.6553 21.761 19.8944 9.61584L62.9934 52.9619C56.3383 56.3474 48.7093 57.3006 41.4256 55.657ZM67.5816 54.0728L65.8405 52.3218L20.5424 6.75073L18.7939 4.99851L20.5424 3.25619L38.9271 21.7446C38.9357 21.7446 38.9407 21.7607 38.9493 21.7669L69.335 52.3305L67.5816 54.0728Z" fill="#212121"/>
<path d="M32.7872 47.2295H32.7761C30.7287 47.2265 29.0666 48.8837 29.0635 50.9311C29.0604 52.9785 30.7176 54.6406 32.765 54.6437H32.7761C34.8235 54.6468 36.4857 52.9896 36.4888 50.9422C36.4918 48.8948 34.8346 47.2326 32.7872 47.2295ZM33.6522 51.8127C33.4196 52.0441 33.1044 52.1736 32.7761 52.1723C32.0937 52.1688 31.5434 51.6127 31.5469 50.9303C31.5486 50.6036 31.6796 50.291 31.9111 50.0605C32.1411 49.8318 32.4518 49.7026 32.7761 49.7009C33.4585 49.7045 34.0089 50.2605 34.0053 50.943C34.0036 51.2696 33.8726 51.5823 33.6411 51.8127H33.6522Z" fill="#2196F3"/>
</g>
<defs>
<clipPath id="clip0">
<rect width="74.1416" height="74.1416" fill="white" transform="translate(0.637695 0.273224)"/>
</clipPath>
</defs>
</svg>
