<svg width="70" height="70" viewBox="0 0 75 75" fill="none" xmlns="http://www.w3.org/2000/svg">
<g clip-path="url(#clip0)">
<path d="M72.8995 35.7251C72.8956 16.1416 57.0165 0.26928 37.4324 0.27324C17.8488 0.277199 1.97651 16.1568 1.98047 35.7404C1.98386 51.1664 11.9592 64.8202 26.6544 69.5123C26.7946 69.5564 26.9406 69.579 27.0871 69.5785C27.3665 69.5779 27.6403 69.5032 27.8807 69.3613C28.1935 69.1763 28.4271 68.8821 28.5369 68.5354L37.4918 40.1531C39.9399 40.1406 41.914 38.1456 41.901 35.698C41.8886 33.2498 39.8941 31.2757 37.4459 31.2881C36.7875 31.291 36.1376 31.4425 35.5459 31.7316L23.7158 19.8998C23.1286 19.333 22.1936 19.3494 21.6268 19.936C21.0736 20.509 21.0736 21.4163 21.6268 21.9893L33.4507 33.8268C32.5434 35.6787 33.0621 37.9142 34.6935 39.1768L26.1611 66.2219C9.29892 60.0104 0.664755 41.3059 6.87622 24.4437C13.0877 7.58151 31.7922 -1.05266 48.6544 5.15881C65.5166 11.3703 74.1508 30.0754 67.9393 46.937C64.9045 55.1752 58.6693 61.8375 50.65 65.4107L49.728 61.0682C49.5594 60.27 48.7749 59.7598 47.9767 59.929C47.725 59.9827 47.4914 60.1009 47.2991 60.2723L38.4092 68.209C37.7995 68.7515 37.7452 69.6854 38.2882 70.2952C38.4647 70.4931 38.6909 70.6402 38.9444 70.7211L50.2942 74.3436C51.0709 74.593 51.903 74.1659 52.1524 73.3887C52.2316 73.1432 52.2446 72.8819 52.1914 72.6296L51.2853 68.3685C64.409 62.8359 72.9301 49.9672 72.8995 35.7251ZM37.4403 34.2476C38.256 34.2476 38.9178 34.9095 38.9178 35.7251C38.9178 36.5414 38.256 37.2026 37.4403 37.2026C36.624 37.2026 35.9628 36.5414 35.9628 35.7251C35.9628 34.9095 36.624 34.2476 37.4403 34.2476ZM42.3066 68.6864L47.367 64.1725L48.7636 70.7533L42.3066 68.6864Z" fill="#212121"/>
<path d="M35.9629 7.65275V10.6077C35.9629 11.424 36.6241 12.0852 37.4404 12.0852C38.2561 12.0852 38.9179 11.424 38.9179 10.6077V7.65275C38.9179 6.83708 38.2561 6.17526 37.4404 6.17526C36.6241 6.17526 35.9629 6.83708 35.9629 7.65275Z" fill="#2196F3"/>
<path d="M9.36812 34.2476C8.55188 34.2476 7.89062 34.9094 7.89062 35.7251C7.89062 36.5413 8.55188 37.2026 9.36812 37.2026H12.3231C13.1393 37.2026 13.8006 36.5413 13.8006 35.7251C13.8006 34.9094 13.1393 34.2476 12.3231 34.2476H9.36812Z" fill="#2196F3"/>
<path d="M65.5126 37.2026C66.3288 37.2026 66.99 36.5413 66.99 35.7251C66.99 34.9094 66.3288 34.2476 65.5126 34.2476H62.5576C61.7419 34.2476 61.0801 34.9094 61.0801 35.7251C61.0801 36.5413 61.7419 37.2026 62.5576 37.2026H65.5126Z" fill="#2196F3"/>
</g>
<defs>
<clipPath id="clip0">
<rect width="74.1416" height="74.1416" fill="white" transform="translate(0.387695 0.273239)"/>
</clipPath>
</defs>
</svg>
