<svg width="84" height="51" viewBox="0 0 84 51" fill="none" xmlns="http://www.w3.org/2000/svg">
<rect width="84" height="51" fill="#E5E5E5"/>
<g id="Desktop">
<g id="&#208;&#147;&#208;&#187;&#208;&#176;&#208;&#178;&#208;&#189;&#208;&#176;&#209;&#143;" clip-path="url(#clip0)">
<rect width="1600" height="2924" transform="translate(-856 -2511)" fill="white"/>
<g id="&#208;&#159;&#208;&#190;&#209;&#129;&#209;&#130;&#208;&#190;&#209;&#143;&#208;&#189;&#208;&#189;&#209;&#139;&#208;&#181; &#208;&#186;&#208;&#187;&#208;&#184;&#208;&#181;&#208;&#189;&#209;&#130;&#209;&#139;">
<g id="Client 4">
<rect id="Rectangle 9" x="-40.5" y="-23.5" width="169" height="89" rx="3.5" stroke="#2196F3"/>
<g id="logo 4" filter="url(#filter0_d)">
<path id="Vector" d="M16.4022 12.8306H16.3995C14.1372 12.8306 12.3032 14.6177 12.3032 16.8223V16.8249C12.3032 19.0295 14.1372 20.8167 16.3995 20.8167H16.4022C18.6645 20.8167 20.4985 19.0295 20.4985 16.8249V16.8223C20.4985 14.6177 18.6645 12.8306 16.4022 12.8306Z" fill="#AFB1B8"/>
<path id="Vector_2" d="M46.6368 11.5545C46.6304 8.49242 45.3795 5.55752 43.1579 3.39207C40.9363 1.22661 37.925 0.00695286 34.7828 0V0C31.6397 0.00556265 28.6269 1.22461 26.4041 3.39022C24.1814 5.55582 22.9298 8.49151 22.9233 11.5545V28.4402C22.9233 28.4402 46.6341 25.8667 46.6368 11.5571V11.5545Z" fill="#AFB1B8"/>
<path id="Vector_3" d="M4 33.9823C4.0057 36.1129 4.87656 38.1547 6.42228 39.6615C7.96799 41.1683 10.0629 42.0177 12.2492 42.0239C14.4351 42.0177 16.5296 41.1687 18.0752 39.6625C19.6209 38.1562 20.492 36.1151 20.4985 33.9849V22.2356C20.4985 22.2356 4 24.0276 4 33.9823ZM12.2492 36.0874C11.822 36.0874 11.4043 35.964 11.0491 35.7326C10.6938 35.5013 10.417 35.1726 10.2535 34.7879C10.09 34.4032 10.0472 33.98 10.1305 33.5716C10.2139 33.1632 10.4196 32.7881 10.7217 32.4937C11.0239 32.1993 11.4088 31.9988 11.8278 31.9176C12.2468 31.8364 12.6812 31.8781 13.0759 32.0374C13.4706 32.1967 13.808 32.4665 14.0454 32.8127C14.2827 33.1589 14.4094 33.5659 14.4094 33.9823C14.4105 34.2594 14.3554 34.534 14.2473 34.7903C14.1392 35.0466 13.9803 35.2796 13.7796 35.476C13.5789 35.6723 13.3404 35.828 13.0778 35.9343C12.8152 36.0406 12.5336 36.0953 12.2492 36.0953V36.0874Z" fill="#AFB1B8"/>
<text id="FOSTER PETERS" fill="#AFB1B8" xml:space="preserve" style="white-space: pre" font-family="Roboto" font-size="6" font-weight="bold" letter-spacing="0em"><tspan x="26.1421" y="36.0752">FOSTER PETERS</tspan></text>
</g>
</g>
</g>
<g id="(&#209;&#131;&#208;&#186;&#208;&#176;&#208;&#183;&#208;&#176;&#209;&#130;&#208;&#181;&#208;&#187;&#208;&#184;)">
</g>
</g>
</g>
<defs>
<filter id="filter0_d" x="0" y="0" width="75.3823" height="50.0239" filterUnits="userSpaceOnUse" color-interpolation-filters="sRGB">
<feFlood flood-opacity="0" result="BackgroundImageFix"/>
<feColorMatrix in="SourceAlpha" type="matrix" values="0 0 0 0 0 0 0 0 0 0 0 0 0 0 0 0 0 0 127 0"/>
<feOffset dy="4"/>
<feGaussianBlur stdDeviation="2"/>
<feColorMatrix type="matrix" values="0 0 0 0 0 0 0 0 0 0 0 0 0 0 0 0 0 0 0.25 0"/>
<feBlend mode="normal" in2="BackgroundImageFix" result="effect1_dropShadow"/>
<feBlend mode="normal" in="SourceGraphic" in2="effect1_dropShadow" result="shape"/>
</filter>
<clipPath id="clip0">
<rect width="1600" height="2924" fill="white" transform="translate(-856 -2511)"/>
</clipPath>
</defs>
</svg>
