<!-- Generated by IcoMoon.io -->
<svg version="1.1" xmlns="http://www.w3.org/2000/svg" width="60" height="32" viewBox="0 0 60 32">
<title>logo4</title>
<path fill="#afb1b8" d="M9.752 9.846h-0.002c-1.667 0-3.018 1.317-3.018 2.941v0.002c0 1.624 1.351 2.941 3.018 2.941h0.002c1.667 0 3.018-1.317 3.018-2.941v-0.002c0-1.624-1.351-2.941-3.018-2.941z"></path>
<path fill="#afb1b8" d="M32.029 8.906c-0.005-2.256-0.926-4.419-2.563-6.014s-3.856-2.494-6.171-2.499v0c-2.316 0.004-4.536 0.902-6.174 2.498s-2.56 3.759-2.565 6.016v12.442c0 0 17.47-1.896 17.472-12.44v-0.002z"></path>
<path fill="#afb1b8" d="M0.614 25.431c0.004 1.57 0.646 3.074 1.785 4.185s2.682 1.736 4.293 1.741c1.611-0.005 3.154-0.63 4.293-1.74s1.781-2.614 1.785-4.183v-8.657c0 0-12.156 1.32-12.156 8.655zM6.692 26.982c-0.315 0-0.623-0.091-0.884-0.261s-0.466-0.413-0.586-0.696c-0.12-0.283-0.152-0.595-0.091-0.896s0.213-0.577 0.436-0.794c0.223-0.217 0.506-0.365 0.815-0.424s0.629-0.029 0.92 0.088c0.291 0.117 0.539 0.316 0.714 0.571s0.268 0.555 0.268 0.862c0.001 0.204-0.040 0.407-0.119 0.595s-0.197 0.361-0.345 0.505c-0.148 0.145-0.324 0.259-0.517 0.338s-0.401 0.119-0.611 0.119v-0.006z"></path>
<path fill="#afb1b8" d="M19.1 25.773h-1.243v1.284h-0.648v-3.143h2.046v0.525h-1.399v0.812h1.243v0.522zM22.213 25.557c0 0.309-0.055 0.581-0.164 0.814s-0.266 0.413-0.471 0.54c-0.203 0.127-0.436 0.19-0.699 0.19-0.26 0-0.493-0.063-0.697-0.188s-0.363-0.304-0.475-0.535c-0.112-0.233-0.169-0.501-0.171-0.803v-0.155c0-0.309 0.055-0.581 0.166-0.816 0.112-0.236 0.27-0.417 0.473-0.542 0.204-0.127 0.438-0.19 0.699-0.19s0.494 0.063 0.697 0.19c0.204 0.125 0.362 0.306 0.473 0.542 0.112 0.235 0.168 0.506 0.168 0.814v0.14zM21.557 25.415c0-0.33-0.059-0.58-0.177-0.751s-0.286-0.257-0.505-0.257c-0.217 0-0.385 0.085-0.503 0.255-0.118 0.168-0.178 0.416-0.179 0.743v0.153c0 0.321 0.059 0.57 0.177 0.747s0.288 0.266 0.509 0.266c0.217 0 0.384-0.085 0.501-0.255 0.117-0.171 0.176-0.42 0.177-0.747v-0.153zM24.313 26.233c0-0.122-0.043-0.216-0.13-0.281-0.086-0.066-0.242-0.135-0.466-0.207-0.224-0.073-0.402-0.145-0.533-0.216-0.357-0.193-0.535-0.453-0.535-0.779 0-0.17 0.047-0.321 0.142-0.453 0.096-0.134 0.234-0.238 0.412-0.313 0.18-0.075 0.381-0.112 0.604-0.112 0.224 0 0.425 0.041 0.6 0.123 0.176 0.081 0.312 0.195 0.408 0.343 0.098 0.148 0.147 0.317 0.147 0.505h-0.648c0-0.144-0.045-0.255-0.136-0.335-0.091-0.081-0.218-0.121-0.382-0.121-0.158 0-0.281 0.034-0.369 0.102-0.088 0.066-0.132 0.154-0.132 0.263 0 0.102 0.051 0.188 0.153 0.257 0.104 0.069 0.255 0.134 0.455 0.194 0.368 0.111 0.637 0.248 0.805 0.412s0.253 0.368 0.253 0.613c0 0.272-0.103 0.486-0.309 0.641-0.206 0.154-0.483 0.231-0.831 0.231-0.242 0-0.462-0.044-0.661-0.132-0.199-0.089-0.35-0.211-0.455-0.365-0.104-0.154-0.155-0.332-0.155-0.535h0.65c0 0.347 0.207 0.52 0.622 0.52 0.154 0 0.274-0.031 0.36-0.093 0.086-0.063 0.13-0.151 0.13-0.263zM27.769 24.439h-0.963v2.618h-0.648v-2.618h-0.95v-0.525h2.56v0.525zM30.032 25.695h-1.243v0.842h1.459v0.52h-2.107v-3.143h2.102v0.525h-1.455v0.749h1.243v0.507zM31.791 25.907h-0.516v1.151h-0.648v-3.143h1.168c0.371 0 0.658 0.083 0.859 0.248s0.302 0.399 0.302 0.702c0 0.214-0.047 0.394-0.14 0.537-0.092 0.142-0.232 0.256-0.421 0.341l0.68 1.284v0.030h-0.695l-0.589-1.151zM31.275 25.382h0.522c0.163 0 0.289-0.041 0.378-0.123 0.089-0.083 0.134-0.198 0.134-0.343 0-0.148-0.042-0.265-0.127-0.35-0.083-0.085-0.212-0.127-0.386-0.127h-0.52v0.943zM35.199 25.95v1.107h-0.648v-3.143h1.226c0.236 0 0.443 0.043 0.622 0.129 0.18 0.086 0.318 0.209 0.414 0.369 0.096 0.158 0.145 0.339 0.145 0.542 0 0.308-0.106 0.551-0.317 0.73-0.21 0.177-0.502 0.266-0.874 0.266h-0.568zM35.199 25.425h0.578c0.171 0 0.301-0.040 0.391-0.121 0.091-0.081 0.136-0.196 0.136-0.345 0-0.154-0.045-0.278-0.136-0.373s-0.216-0.144-0.376-0.147h-0.594v0.986zM39.296 25.695h-1.243v0.842h1.459v0.52h-2.107v-3.143h2.103v0.525h-1.455v0.749h1.243v0.507zM42.301 24.439h-0.963v2.618h-0.648v-2.618h-0.95v-0.525h2.56v0.525zM44.563 25.695h-1.243v0.842h1.459v0.52h-2.107v-3.143h2.103v0.525h-1.455v0.749h1.243v0.507zM46.323 25.907h-0.516v1.151h-0.648v-3.143h1.168c0.371 0 0.658 0.083 0.859 0.248s0.302 0.399 0.302 0.702c0 0.214-0.047 0.394-0.14 0.537-0.092 0.142-0.232 0.256-0.421 0.341l0.68 1.284v0.030h-0.695l-0.589-1.151zM45.807 25.382h0.522c0.163 0 0.288-0.041 0.378-0.123 0.089-0.083 0.134-0.198 0.134-0.343 0-0.148-0.042-0.265-0.127-0.35-0.083-0.085-0.212-0.127-0.386-0.127h-0.52v0.943zM49.612 26.233c0-0.122-0.043-0.216-0.13-0.281-0.086-0.066-0.242-0.135-0.466-0.207-0.224-0.073-0.402-0.145-0.533-0.216-0.357-0.193-0.535-0.453-0.535-0.779 0-0.17 0.047-0.321 0.142-0.453 0.096-0.134 0.234-0.238 0.412-0.313 0.18-0.075 0.381-0.112 0.604-0.112 0.225 0 0.425 0.041 0.6 0.123 0.176 0.081 0.312 0.195 0.408 0.343 0.098 0.148 0.147 0.317 0.147 0.505h-0.648c0-0.144-0.045-0.255-0.136-0.335-0.091-0.081-0.218-0.121-0.382-0.121-0.158 0-0.281 0.034-0.369 0.102-0.088 0.066-0.132 0.154-0.132 0.263 0 0.102 0.051 0.188 0.153 0.257 0.104 0.069 0.255 0.134 0.456 0.194 0.368 0.111 0.637 0.248 0.805 0.412s0.253 0.368 0.253 0.613c0 0.272-0.103 0.486-0.309 0.641-0.206 0.154-0.483 0.231-0.831 0.231-0.242 0-0.462-0.044-0.661-0.132-0.199-0.089-0.35-0.211-0.455-0.365-0.104-0.154-0.155-0.332-0.155-0.535h0.65c0 0.347 0.207 0.52 0.622 0.52 0.154 0 0.274-0.031 0.361-0.093 0.086-0.063 0.13-0.151 0.13-0.263z"></path>
</svg>
