<svg width="70" height="70" viewBox="0 0 76 75" fill="none" xmlns="http://www.w3.org/2000/svg">
<g clip-path="url(#clip0)">
<path d="M74.9687 10.7551C74.8228 10.309 74.4374 9.98287 73.9715 9.91481L69.5452 9.27098L67.5644 5.25989C67.1492 4.41463 65.764 4.41463 65.3488 5.25989L63.3679 9.27098L58.9415 9.91495C58.4757 9.98287 58.0902 10.308 57.9431 10.7553C57.7986 11.2026 57.9183 11.6944 58.2557 12.0219L61.4599 15.1446L60.7037 19.5536C60.6247 20.017 60.8149 20.4854 61.1943 20.7622C61.5787 21.0416 62.0803 21.076 62.4968 20.8561L66.456 18.7738L70.4153 20.8561C70.5957 20.9512 70.7947 20.9981 70.9912 20.9981C71.2469 20.9981 71.5028 20.9191 71.7178 20.7621C72.0984 20.4854 72.2887 20.0169 72.2084 19.5535L71.4522 15.1445L74.6565 12.0218C74.9921 11.6931 75.1133 11.2025 74.9687 10.7551ZM69.2623 13.8296C68.9719 14.1126 68.8384 14.5228 68.9076 14.9232L69.35 17.5046L67.0319 16.2862C66.8515 16.191 66.6538 16.1441 66.456 16.1441C66.2583 16.1441 66.0618 16.191 65.8801 16.2862L63.5618 17.5046L64.0042 14.9232C64.0735 14.5228 63.9399 14.1139 63.6496 13.8296L61.7726 12.0008L64.3651 11.6239C64.768 11.5658 65.1152 11.3125 65.2957 10.9479L66.4547 8.60008L67.6138 10.9479C67.7942 11.3124 68.1415 11.5658 68.5443 11.6239L71.1368 12.0008L69.2623 13.8296Z" fill="#2196F3"/>
<path d="M61.4363 47.8217H58.9648V50.2931H61.4363V47.8217Z" fill="#2196F3"/>
<path d="M61.4363 52.7646H58.9648V55.236H61.4363V52.7646Z" fill="#2196F3"/>
<path d="M63.908 50.2931H61.4365V52.7646H63.908V50.2931Z" fill="#2196F3"/>
<path d="M58.9646 50.2931H56.4932V52.7646H58.9646V50.2931Z" fill="#2196F3"/>
<path d="M52.7859 61.4145H50.3145V63.886H52.7859V61.4145Z" fill="#2196F3"/>
<path d="M52.7859 66.3573H50.3145V68.8288H52.7859V66.3573Z" fill="#2196F3"/>
<path d="M55.2576 63.886H52.7861V66.3574H55.2576V63.886Z" fill="#2196F3"/>
<path d="M50.3152 63.886H47.8438V66.3574H50.3152V63.886Z" fill="#2196F3"/>
<path d="M37.9578 56.4717H35.4863V58.9432H37.9578V56.4717Z" fill="#2196F3"/>
<path d="M37.9578 61.4145H35.4863V63.886H37.9578V61.4145Z" fill="#2196F3"/>
<path d="M40.4295 58.943H37.958V61.4145H40.4295V58.943Z" fill="#2196F3"/>
<path d="M35.4861 58.943H33.0146V61.4145H35.4861V58.943Z" fill="#2196F3"/>
<path d="M14.4793 14.4574H12.0078V16.9288H14.4793V14.4574Z" fill="#2196F3"/>
<path d="M14.4793 19.4003H12.0078V21.8718H14.4793V19.4003Z" fill="#2196F3"/>
<path d="M16.951 16.9288H14.4795V19.4003H16.951V16.9288Z" fill="#2196F3"/>
<path d="M12.0076 16.9288H9.53613V19.4003H12.0076V16.9288Z" fill="#2196F3"/>
<path d="M58.1489 33.0796C57.4829 32.1812 56.5055 31.603 55.3958 31.4472C54.2812 31.2891 53.1814 31.5819 52.2917 32.2628L49.3914 34.4857L49.3901 34.487L44.9934 37.7703L41.8472 36.5173C47.4573 34.0002 51.3783 28.3888 51.3783 21.8741C51.3783 13.0165 44.1432 5.80988 35.2498 5.80988C26.3565 5.80988 19.1215 13.0165 19.1215 21.8741C19.1215 25.0845 20.0816 28.0699 21.7165 30.5821L15.313 30.5265C15.3092 30.5265 15.3056 30.5265 15.3018 30.5265C15.282 30.5265 15.266 30.5363 15.2475 30.5376C15.1251 30.5426 15.0052 30.5673 14.8879 30.6093C14.8583 30.6205 14.8274 30.6267 14.799 30.6402C14.7843 30.6464 14.7693 30.6475 14.7546 30.6549L7.26369 34.3534C7.26239 34.3534 7.26123 34.3534 7.26123 34.3545L2.87435 36.4641C2.82613 36.4851 2.77675 36.5135 2.72853 36.5457C0.979946 37.7096 0.384342 39.9958 1.34212 41.8641C1.85243 42.8576 2.72114 43.5892 3.78883 43.924C4.20038 44.0525 4.62047 44.1156 5.0381 44.1156C5.70915 44.1156 6.37398 43.9512 6.98305 43.6263L10.1984 41.9161L15.444 39.2074L18.5877 39.1889L5.97966 51.7364C5.9785 51.7377 5.9772 51.7377 5.97589 51.7388L2.87421 54.8281C2.14147 55.5572 1.73861 56.5247 1.73861 57.5566C1.73861 58.5872 2.14147 59.5571 2.87421 60.2875C3.62678 61.0364 4.61656 61.412 5.60634 61.412C6.59742 61.412 7.58589 61.0364 8.34093 60.2875L11.3857 57.2551L15.4191 54.2436L17.5062 56.3221L13.4246 60.3863C13.4235 60.3876 13.4222 60.3876 13.4209 60.3888L10.3192 63.478C9.58644 64.2071 9.18358 65.1746 9.18358 66.2065C9.18358 67.2371 9.58644 68.2071 10.3192 68.9375C11.0718 69.6863 12.0628 70.0619 13.0526 70.0619C14.0424 70.0619 15.0335 69.6863 15.7872 68.9375L18.8901 65.8483L23.8539 60.9055C23.8552 60.9041 23.8552 60.903 23.8563 60.9017L26.1956 58.5847L26.1869 58.576C26.2017 58.5613 26.2227 58.5562 26.2376 58.5403L38.2067 45.4306L46.2487 46.5749C46.3068 46.5836 46.3649 46.5872 46.4229 46.5872C46.5725 46.5872 46.717 46.5514 46.8566 46.4983C46.8975 46.4835 46.9332 46.4637 46.9716 46.444C47.0161 46.4217 47.063 46.4094 47.1051 46.381L54.5503 41.4382C54.5775 41.4197 54.5923 41.39 54.6182 41.3703C54.6479 41.3468 54.6849 41.337 54.712 41.3109L57.6579 38.5516C59.1907 37.1153 59.402 34.7626 58.1489 33.0796ZM5.82268 41.4453C5.42113 41.6603 4.96512 41.7035 4.52895 41.5652C4.0964 41.4305 3.74553 41.1351 3.54033 40.736C3.16716 40.0094 3.38336 39.1246 4.03703 38.6464L7.08065 37.1821L7.81339 39.3235L8.12111 40.2231L5.82268 41.4453ZM13.9252 37.2106L10.338 39.0642L9.74617 37.3341L9.32115 36.091L14.0169 33.7727L13.9252 37.2106ZM48.9095 21.8716C48.9095 23.9995 48.4016 26.0064 47.5218 27.8017L37.8338 23.4014C37.7324 22.0731 37.043 20.9102 36.0075 20.186L39.3995 8.92503C44.9084 10.6774 48.9095 15.8167 48.9095 21.8716ZM21.5954 21.8716C21.5954 14.377 27.722 8.27874 35.2524 8.27874C35.8382 8.27874 36.4115 8.32812 36.9787 8.3998L33.6608 19.4138C33.6164 19.4125 33.5744 19.4002 33.5286 19.4002C31.1362 19.4002 29.19 21.3402 29.19 23.7252C29.19 26.1101 31.1362 28.0502 33.5286 28.0502C35.1375 28.0502 36.5276 27.1618 37.2777 25.8617L46.2267 29.9273C43.7367 33.2785 39.7515 35.4645 35.2523 35.4645C27.722 35.4645 21.5954 29.3663 21.5954 21.8716ZM35.3958 23.7252C35.3958 24.7471 34.5579 25.5788 33.5286 25.5788C32.4993 25.5788 31.6614 24.7471 31.6614 23.7252C31.6614 22.7033 32.4993 21.8716 33.5286 21.8716C34.5579 21.8716 35.3958 22.7033 35.3958 23.7252ZM6.59756 58.5352C6.05018 59.0777 5.16409 59.0765 4.61801 58.5365C4.35474 58.2732 4.21022 57.9261 4.21022 57.5566C4.21022 57.1883 4.35474 56.8411 4.61801 56.5804L6.84707 54.3597L8.81924 56.3234L6.59756 58.5352ZM14.0438 67.1853C13.4965 67.7277 12.6092 67.729 12.063 67.1866C11.7997 66.9233 11.6552 66.5762 11.6552 66.2067C11.6552 65.8384 11.7997 65.4912 12.063 65.2305L14.2935 63.0087L15.2265 63.9368L16.267 64.9723L14.0438 67.1853ZM22.1106 59.1482C22.1093 59.1493 22.1082 59.1493 22.1069 59.1506L18.0179 63.2285L17.0849 62.3004L16.0444 61.2649L20.1296 57.1982C20.1296 57.1982 20.1296 57.1982 20.1296 57.197C20.1309 57.1957 20.1321 57.1957 20.1334 57.1945C20.2261 57.1019 20.2841 56.9907 20.3411 56.8807C20.3571 56.8486 20.388 56.8214 20.4016 56.7881C20.44 56.6929 20.446 56.5904 20.461 56.4902C20.4683 56.4333 20.4931 56.3803 20.4931 56.3221C20.4931 56.2392 20.4634 56.159 20.4462 56.0773C20.4314 56.0032 20.4314 55.9278 20.4029 55.8562C20.356 55.7401 20.2756 55.6376 20.1916 55.5373C20.1681 55.5101 20.1595 55.4755 20.1335 55.4496C20.1335 55.4496 20.1335 55.4496 20.1322 55.4496C20.1309 55.4484 20.1309 55.4458 20.1298 55.4447L16.4066 51.7375C16.367 51.698 16.3163 51.6819 16.2719 51.6486C16.2064 51.5979 16.1434 51.551 16.0705 51.5151C16.0001 51.4805 15.9284 51.4595 15.8543 51.4397C15.7752 51.4174 15.6986 51.4001 15.6158 51.3939C15.5403 51.389 15.4699 51.3964 15.3946 51.405C15.3118 51.4149 15.234 51.426 15.1537 51.452C15.0758 51.4767 15.0067 51.515 14.935 51.5558C14.8892 51.5817 14.8374 51.5904 14.7941 51.6226L10.6854 54.6896L8.59826 52.6112L14.1565 47.0826L24.2598 57.019L22.1106 59.1482ZM37.9093 42.8911C37.8735 42.8862 37.84 42.8998 37.8043 42.8973C37.7141 42.8924 37.6276 42.8986 37.5374 42.9134C37.467 42.9257 37.4003 42.9393 37.3335 42.9628C37.2544 42.99 37.1828 43.0271 37.1098 43.0715C37.0405 43.1135 36.9776 43.158 36.917 43.2136C36.8873 43.2395 36.8516 43.2519 36.8243 43.2815L25.9388 55.2037L15.911 45.3414L22.4751 38.8119C22.9583 38.33 22.9608 37.5477 22.4789 37.0634C22.2355 36.8199 21.9154 36.7 21.5954 36.7013V36.7002L16.4548 36.731L16.5191 33.0066L23.7109 33.0685C26.642 36.0663 30.7297 37.936 35.2524 37.936C36.2657 37.936 37.2543 37.831 38.2168 37.6517C38.3095 37.7259 38.4009 37.8013 38.5172 37.8482L44.1002 40.0725L44.4535 41.8296L44.8662 43.8809L37.9093 42.8911ZM47.2722 43.3038L46.5469 39.6943L49.8981 37.1919L50.7755 38.3559L52.0915 40.1032L47.2722 43.3038ZM55.9691 36.7446L54.0278 38.5636L51.8703 35.6992L53.7967 34.2226C54.1562 33.9459 54.6098 33.8334 55.0546 33.8914C55.5019 33.9544 55.8974 34.188 56.1668 34.55C56.6685 35.226 56.5832 36.1689 55.9691 36.7446Z" fill="#212121"/>
<path d="M32.4021 43.2384L27.437 38.2956C26.9564 37.8149 26.1753 37.8149 25.6933 38.2956L20.7295 43.2384C20.4973 43.4719 20.3662 43.7857 20.3662 44.1145C20.3662 44.4432 20.496 44.7583 20.7295 44.9906L25.6933 49.9334C25.9343 50.173 26.2507 50.2929 26.5658 50.2929C26.8809 50.2929 27.1972 50.173 27.437 49.9334L32.4021 44.9906C32.6344 44.7583 32.7666 44.4432 32.7666 44.1145C32.7666 43.7857 32.6355 43.4706 32.4021 43.2384ZM26.5658 47.3138L23.3529 44.1145L26.5658 40.9152L29.7799 44.1145L26.5658 47.3138Z" fill="#212121"/>
<path d="M40.6555 12.0218L40.0586 14.4216C40.223 14.4624 44.0846 15.4683 44.0846 19.4003H46.5561C46.5559 14.7267 42.6969 12.5297 40.6555 12.0218Z" fill="#212121"/>
<path d="M46.5555 21.8716H44.084V24.3431H46.5555V21.8716Z" fill="#212121"/>
</g>
<defs>
<clipPath id="clip0">
<rect width="74.1416" height="74.1416" fill="white" transform="translate(0.886719 0.273239)"/>
</clipPath>
</defs>
</svg>
