<svg width="70" height="70" viewBox="0 0 75 75" fill="none" xmlns="http://www.w3.org/2000/svg">
<g clip-path="url(#clip0)">
<path d="M34.7178 34.9451H37.1879V46.0605H34.7178V34.9451Z" fill="#2196F3"/>
<path d="M44.5986 39.8853H47.0687V46.0605H44.5986V39.8853Z" fill="#2196F3"/>
<path d="M24.8379 43.5904H27.308V46.0605H24.8379V43.5904Z" fill="#2196F3"/>
<path d="M17.4268 42.3554H19.8968V46.0605H17.4268V42.3554Z" fill="#2196F3"/>
<path d="M3.84186 65.8213H63.1241C65.1702 65.8213 66.8292 64.1623 66.8292 62.1162V57.176C66.8292 55.1298 65.1702 53.4708 63.1241 53.4708H61.889V22.6713L68.9043 16.0256C70.5325 16.8283 72.5033 16.341 73.5689 14.8702C74.6351 13.4 74.4855 11.3755 73.2155 10.0778C71.9455 8.78 69.9253 8.58642 68.4315 9.61944C66.9384 10.6531 66.4077 12.6124 67.1748 14.2581L61.889 19.2688V16.4194C61.889 14.3733 60.23 12.7143 58.1839 12.7143H8.78204C6.73589 12.7143 5.0769 14.3733 5.0769 16.4194V53.4708H3.84186C1.79571 53.4708 0.136719 55.1298 0.136719 57.176V62.1162C0.136719 64.1623 1.79571 65.8213 3.84186 65.8213ZM70.5344 11.4792C71.2164 11.4792 71.7694 12.0322 71.7694 12.7143C71.7694 13.3963 71.2164 13.9493 70.5344 13.9493C69.8523 13.9493 69.2993 13.3963 69.2993 12.7143C69.2993 12.0322 69.8523 11.4792 70.5344 11.4792ZM7.547 16.4194C7.547 15.7374 8.09999 15.1844 8.78204 15.1844H58.1839C58.8659 15.1844 59.4189 15.7374 59.4189 16.4194V21.6063L56.9488 23.9533V18.8895C56.9488 18.2075 56.3959 17.6545 55.7138 17.6545H11.2521C10.5701 17.6545 10.0171 18.2075 10.0171 18.8895V49.7657C10.0171 50.4477 10.5701 51.0007 11.2521 51.0007H55.7138C56.3959 51.0007 56.9488 50.4477 56.9488 49.7657V27.3509L59.4189 25.0105V53.4708H7.547V16.4194ZM18.6624 32.475C16.9914 32.4702 15.5241 33.5834 15.0797 35.1942C14.6352 36.8049 15.3233 38.5134 16.7604 39.3661C18.1969 40.2188 20.0271 40.0047 21.2278 38.8426L25.5209 40.9967C26.0196 41.2464 26.6245 41.1294 26.9954 40.7127L36.1213 30.4458L45.0923 37.168C45.5735 37.5286 46.2453 37.49 46.6819 37.0769L54.4788 29.6914V48.5306H12.4872V20.1246H54.4788V26.2884L45.7406 34.5634L36.6942 27.7815C36.1804 27.3968 35.4574 27.4691 35.0304 27.9485L25.779 38.3578L22.3205 36.6282C22.3458 36.4799 22.3615 36.3303 22.3676 36.1802C22.3676 34.134 20.7086 32.475 18.6624 32.475ZM19.8975 36.1802C19.8975 36.8622 19.3445 37.4152 18.6624 37.4152C17.9804 37.4152 17.4274 36.8622 17.4274 36.1802C17.4274 35.4981 17.9804 34.9451 18.6624 34.9451C19.3445 34.9451 19.8975 35.4981 19.8975 36.1802ZM27.3077 55.9409H39.6582V57.176C39.6582 57.858 39.1052 58.411 38.4232 58.411H28.5428C27.8607 58.411 27.3077 57.858 27.3077 57.176V55.9409ZM2.60681 57.176C2.60681 56.4939 3.15981 55.9409 3.84186 55.9409H24.8376V57.176C24.8376 59.2221 26.4966 60.8811 28.5428 60.8811H38.4232C40.4693 60.8811 42.1283 59.2221 42.1283 57.176V55.9409H63.1241C63.8061 55.9409 64.3591 56.4939 64.3591 57.176V62.1162C64.3591 62.7982 63.8061 63.3512 63.1241 63.3512H3.84186C3.15981 63.3512 2.60681 62.7982 2.60681 62.1162V57.176Z" fill="#212121"/>
</g>
<defs>
<clipPath id="clip0">
<rect width="74.1416" height="74.1416" fill="white" transform="translate(0.136719 0.273239)"/>
</clipPath>
</defs>
</svg>
