<svg width="86" height="46" viewBox="0 0 86 46" fill="none" xmlns="http://www.w3.org/2000/svg">
<path d="M14.0187 14.1543H14.0159C11.6197 14.1543 9.67725 16.0472 9.67725 18.3822V18.385C9.67725 20.72 11.6197 22.6129 14.0159 22.6129H14.0187C16.4149 22.6129 18.3574 20.72 18.3574 18.385V18.3822C18.3574 16.0472 16.4149 14.1543 14.0187 14.1543Z" fill="#AFB1B8"/>
<path d="M46.0423 12.8027C46.0355 9.55945 44.7106 6.45091 42.3576 4.15734C40.0045 1.86376 36.815 0.571939 33.4869 0.564575V0.564575C30.1578 0.570467 26.9668 1.86164 24.6125 4.15537C22.2583 6.44911 20.9326 9.55849 20.9258 12.8027V30.6874C20.9258 30.6874 46.0394 27.9617 46.0423 12.8055V12.8027Z" fill="#AFB1B8"/>
<path d="M0.882812 36.5574C0.888849 38.8141 1.81123 40.9767 3.4484 42.5727C5.08558 44.1686 7.30443 45.0682 9.62011 45.0748C11.9353 45.0682 14.1537 44.169 15.7908 42.5737C17.4279 40.9783 18.3506 38.8164 18.3574 36.5602V24.1157C18.3574 24.1157 0.882812 26.0137 0.882812 36.5574ZM9.62011 38.7871C9.16759 38.7871 8.72523 38.6563 8.34897 38.4113C7.97271 38.1663 7.67945 37.8181 7.50627 37.4107C7.3331 37.0033 7.28779 36.5549 7.37607 36.1224C7.46436 35.6899 7.68227 35.2926 8.00225 34.9808C8.32223 34.669 8.72992 34.4566 9.17374 34.3706C9.61757 34.2845 10.0776 34.3287 10.4957 34.4974C10.9138 34.6662 11.2711 34.952 11.5225 35.3187C11.7739 35.6853 11.9081 36.1164 11.9081 36.5574C11.9092 36.8509 11.8509 37.1418 11.7364 37.4132C11.6219 37.6847 11.4536 37.9315 11.241 38.1395C11.0284 38.3474 10.7758 38.5124 10.4977 38.6249C10.2195 38.7375 9.9213 38.7955 9.62011 38.7955V38.7871Z" fill="#AFB1B8"/>
<path d="M27.4566 37.0487H25.6693V38.895H24.7384V34.377H27.68V35.131H25.6693V36.2977H27.4566V37.0487ZM31.9312 36.7384C31.9312 37.1831 31.8526 37.5731 31.6953 37.9082C31.5381 38.2433 31.3126 38.5019 31.0189 38.684C30.7272 38.866 30.3921 38.957 30.0135 38.957C29.6391 38.957 29.305 38.867 29.0112 38.6871C28.7175 38.5071 28.4899 38.2506 28.3286 37.9175C28.1672 37.5824 28.0855 37.1976 28.0834 36.7632V36.5398C28.0834 36.095 28.1631 35.704 28.3223 35.3668C28.4837 35.0276 28.7102 34.7679 29.0019 34.588C29.2957 34.4059 29.6308 34.3149 30.0073 34.3149C30.3838 34.3149 30.7179 34.4059 31.0096 34.588C31.3033 34.7679 31.5298 35.0276 31.6891 35.3668C31.8505 35.704 31.9312 36.094 31.9312 36.5367V36.7384ZM30.9878 36.5336C30.9878 36.0598 30.903 35.6999 30.7334 35.4537C30.5638 35.2075 30.3217 35.0844 30.0073 35.0844C29.6949 35.0844 29.4539 35.2065 29.2843 35.4506C29.1147 35.6926 29.0288 36.0485 29.0267 36.518V36.7384C29.0267 37.1997 29.1115 37.5576 29.2812 37.812C29.4508 38.0665 29.6949 38.1937 30.0135 38.1937C30.3259 38.1937 30.5658 38.0716 30.7334 37.8275C30.901 37.5813 30.9858 37.2235 30.9878 36.7539V36.5336ZM34.9504 37.7096C34.9504 37.5338 34.8883 37.3993 34.7642 37.3062C34.6401 37.2111 34.4167 37.1118 34.094 37.0083C33.7713 36.9028 33.5158 36.7994 33.3275 36.698C32.8145 36.4208 32.558 36.0474 32.558 35.5778C32.558 35.3337 32.6262 35.1165 32.7628 34.9262C32.9014 34.7338 33.0989 34.5838 33.3555 34.4763C33.614 34.3687 33.9037 34.3149 34.2243 34.3149C34.547 34.3149 34.8346 34.3739 35.0869 34.4918C35.3393 34.6076 35.5348 34.7721 35.6734 34.9851C35.8141 35.1982 35.8844 35.4403 35.8844 35.7113H34.9535C34.9535 35.5044 34.8883 35.3441 34.758 35.2303C34.6277 35.1144 34.4446 35.0565 34.2088 35.0565C33.9812 35.0565 33.8044 35.1051 33.6782 35.2024C33.552 35.2975 33.4889 35.4237 33.4889 35.5809C33.4889 35.7278 33.5623 35.8509 33.7092 35.9502C33.8581 36.0495 34.0764 36.1426 34.3639 36.2295C34.8935 36.3887 35.2793 36.5863 35.5214 36.8221C35.7634 37.058 35.8844 37.3517 35.8844 37.7034C35.8844 38.0944 35.7365 38.4016 35.4407 38.625C35.1449 38.8463 34.7466 38.957 34.246 38.957C33.8985 38.957 33.582 38.8939 33.2965 38.7677C33.011 38.6395 32.7928 38.4647 32.6418 38.2433C32.4928 38.022 32.4183 37.7655 32.4183 37.4738H33.3523C33.3523 37.9723 33.6502 38.2216 34.246 38.2216C34.4674 38.2216 34.6401 38.1771 34.7642 38.0882C34.8883 37.9972 34.9504 37.871 34.9504 37.7096ZM39.9183 35.131H38.5344V38.895H37.6035V35.131H36.2382V34.377H39.9183V35.131ZM43.1703 36.937H41.383V38.1471H43.4806V38.895H40.4521V34.377H43.4744V35.131H41.383V36.2077H43.1703V36.937ZM45.6993 37.241H44.9577V38.895H44.0268V34.377H45.7055C46.2392 34.377 46.6509 34.4959 46.9405 34.7338C47.2301 34.9717 47.3749 35.3079 47.3749 35.7423C47.3749 36.0505 47.3077 36.3081 47.1732 36.5149C47.0408 36.7197 46.8391 36.8832 46.5681 37.0052L47.5456 38.8515V38.895H46.5464L45.6993 37.241ZM44.9577 36.487H45.7086C45.9424 36.487 46.1234 36.4281 46.2516 36.3101C46.3799 36.1902 46.444 36.0257 46.444 35.8168C46.444 35.6037 46.383 35.4361 46.2609 35.3141C46.1409 35.192 45.9558 35.131 45.7055 35.131H44.9577V36.487ZM50.599 37.3031V38.895H49.6681V34.377H51.4306C51.7698 34.377 52.0677 34.439 52.3242 34.5631C52.5828 34.6873 52.7814 34.8641 52.92 35.0938C53.0586 35.3213 53.1279 35.5809 53.1279 35.8726C53.1279 36.3153 52.9759 36.6649 52.6718 36.9214C52.3698 37.1759 51.9508 37.3031 51.4151 37.3031H50.599ZM50.599 36.5491H51.4306C51.6767 36.5491 51.864 36.4911 51.9922 36.3753C52.1225 36.2595 52.1877 36.094 52.1877 35.8788C52.1877 35.6575 52.1225 35.4785 51.9922 35.342C51.8619 35.2055 51.6819 35.1351 51.4523 35.131H50.599V36.5491ZM56.4885 36.937H54.7012V38.1471H56.7988V38.895H53.7702V34.377H56.7926V35.131H54.7012V36.2077H56.4885V36.937ZM60.8079 35.131H59.424V38.895H58.4931V35.131H57.1277V34.377H60.8079V35.131ZM64.0599 36.937H62.2725V38.1471H64.3702V38.895H61.3416V34.377H64.364V35.131H62.2725V36.2077H64.0599V36.937ZM66.5888 37.241H65.8472V38.895H64.9163V34.377H66.595C67.1288 34.377 67.5404 34.4959 67.8301 34.7338C68.1197 34.9717 68.2645 35.3079 68.2645 35.7423C68.2645 36.0505 68.1972 36.3081 68.0628 36.5149C67.9304 36.7197 67.7287 36.8832 67.4577 37.0052L68.4351 38.8515V38.895H67.436L66.5888 37.241ZM65.8472 36.487H66.5982C66.8319 36.487 67.0129 36.4281 67.1412 36.3101C67.2694 36.1902 67.3336 36.0257 67.3336 35.8168C67.3336 35.6037 67.2725 35.4361 67.1505 35.3141C67.0305 35.192 66.8454 35.131 66.595 35.131H65.8472V36.487ZM71.3179 37.7096C71.3179 37.5338 71.2558 37.3993 71.1317 37.3062C71.0075 37.2111 70.7841 37.1118 70.4614 37.0083C70.1387 36.9028 69.8832 36.7994 69.695 36.698C69.1819 36.4208 68.9254 36.0474 68.9254 35.5778C68.9254 35.3337 68.9937 35.1165 69.1302 34.9262C69.2688 34.7338 69.4664 34.5838 69.7229 34.4763C69.9815 34.3687 70.2711 34.3149 70.5917 34.3149C70.9145 34.3149 71.202 34.3739 71.4544 34.4918C71.7068 34.6076 71.9023 34.7721 72.0409 34.9851C72.1815 35.1982 72.2519 35.4403 72.2519 35.7113H71.321C71.321 35.5044 71.2558 35.3441 71.1255 35.2303C70.9951 35.1144 70.8121 35.0565 70.5762 35.0565C70.3487 35.0565 70.1718 35.1051 70.0456 35.2024C69.9194 35.2975 69.8563 35.4237 69.8563 35.5809C69.8563 35.7278 69.9298 35.8509 70.0766 35.9502C70.2256 36.0495 70.4438 36.1426 70.7314 36.2295C71.261 36.3887 71.6468 36.5863 71.8888 36.8221C72.1308 37.058 72.2519 37.3517 72.2519 37.7034C72.2519 38.0944 72.104 38.4016 71.8081 38.625C71.5123 38.8463 71.1141 38.957 70.6135 38.957C70.2659 38.957 69.9494 38.8939 69.6639 38.7677C69.3785 38.6395 69.1602 38.4647 69.0092 38.2433C68.8603 38.022 68.7858 37.7655 68.7858 37.4738H69.7198C69.7198 37.9723 70.0177 38.2216 70.6135 38.2216C70.8348 38.2216 71.0075 38.1771 71.1317 38.0882C71.2558 37.9972 71.3179 37.871 71.3179 37.7096Z" fill="#AFB1B8"/>
</svg>
