<!-- Generated by IcoMoon.io -->
<svg version="1.1" xmlns="http://www.w3.org/2000/svg" width="32" height="32" viewBox="0 0 32 32">
<title>antenna</title>
<path fill="#212121" d="M30.693 21.961l-8.347-8.408 0.926-4.563c0.239 0.093 0.493 0.142 0.75 0.144h0.006c1.179 0.014 2.145-0.93 2.159-2.109s-0.93-2.145-2.109-2.159c-1.179-0.014-2.145 0.93-2.159 2.109-0.003 0.252 0.039 0.503 0.123 0.741l-4.903 0.598-7.998-8.040c-0.098-0.1-0.232-0.157-0.372-0.158-0.138 0.001-0.271 0.056-0.369 0.153l-1.495 1.487c-0.206 0.206-0.206 0.54 0 0.746l0.805 0.816c-3.117 5.732-2.105 12.829 2.491 17.461 0.042 0.040 0.091 0.073 0.144 0.096-0.033 0.178-0.051 0.359-0.052 0.541v6.116h-6.327c-1.455 0.002-2.634 1.181-2.636 2.636v1.054c0 0.291 0.236 0.527 0.527 0.527h24.253c0.291 0 0.527-0.236 0.527-0.527v-1.054c-0.002-1.455-1.181-2.634-2.636-2.636h-6.327v-2.71c0.991 0.208 2.001 0.314 3.014 0.316 2.43-0.003 4.821-0.608 6.959-1.763l0.809 0.814c0.098 0.1 0.232 0.157 0.372 0.158 0.138-0.001 0.271-0.056 0.369-0.153l1.495-1.487c0.206-0.206 0.206-0.54 0-0.745zM23.286 6.278c0.413-0.411 1.081-0.409 1.491 0.004s0.409 1.081-0.004 1.491c-0.198 0.197-0.465 0.307-0.744 0.307h-0.003c-0.582-0.003-1.052-0.478-1.049-1.060 0.001-0.279 0.113-0.546 0.311-0.742h-0.002zM22.045 9.743l-0.592 2.912-1.162-1.169 1.754-1.743zM21.446 8.851l-1.898 1.887-1.468-1.476 3.366-0.411zM24.002 28.587c0.873 0 1.582 0.708 1.582 1.582v0.527h-23.198v-0.527c0-0.874 0.708-1.582 1.582-1.582h20.035zM16.62 26.478v1.054h-5.272v-1.054h5.272zM11.348 25.424v-4.007c0-1.279 1.183-2.32 2.636-2.32s2.636 1.041 2.636 2.32v4.007h-5.272zM17.675 23.747v-2.33c0-1.861-1.655-3.374-3.691-3.374-1.316-0.020-2.546 0.65-3.244 1.766-4.011-4.225-4.915-10.523-2.253-15.705l18.389 18.494c-2.84 1.444-6.095 1.851-9.202 1.15zM28.835 23.071l-20.816-20.938 0.746-0.743 7.844 7.888c0.004 0 0.006 0.007 0.009 0.009l12.965 13.040-0.748 0.743z"></path>
<path fill="#2196f3" d="M13.989 20.151h-0.005c-0.874-0.001-1.583 0.706-1.584 1.579s0.706 1.583 1.579 1.584h0.005c0.874 0.001 1.583-0.706 1.584-1.579s-0.706-1.583-1.579-1.584zM14.358 22.107c-0.099 0.099-0.234 0.154-0.374 0.153-0.291-0.002-0.526-0.239-0.524-0.53 0.001-0.139 0.057-0.273 0.155-0.371s0.231-0.153 0.369-0.153c0.291 0.002 0.526 0.239 0.524 0.53-0.001 0.139-0.057 0.273-0.155 0.371h0.005z"></path>
</svg>
