<!-- Generated by IcoMoon.io -->
<svg version="1.1" xmlns="http://www.w3.org/2000/svg" width="32" height="32" viewBox="0 0 32 32">
<title>diagram</title>
<path fill="#2196f3" d="M14.813 14.91h1.054v4.743h-1.054v-4.743z"></path>
<path fill="#2196f3" d="M19.029 17.018h1.054v2.635h-1.054v-2.635z"></path>
<path fill="#2196f3" d="M10.598 18.599h1.054v1.054h-1.054v-1.054z"></path>
<path fill="#2196f3" d="M7.435 18.072h1.054v1.581h-1.054v-1.581z"></path>
<path fill="#212121" d="M1.639 28.084h25.294c0.873 0 1.581-0.708 1.581-1.581v-2.108c0-0.873-0.708-1.581-1.581-1.581h-0.527v-13.141l2.993-2.835c0.695 0.343 1.536 0.135 1.99-0.493s0.391-1.491-0.151-2.045c-0.542-0.554-1.404-0.636-2.041-0.196s-0.863 1.277-0.536 1.979l-2.255 2.138v-1.216c0-0.873-0.708-1.581-1.581-1.581h-21.078c-0.873 0-1.581 0.708-1.581 1.581v15.809h-0.527c-0.873 0-1.581 0.708-1.581 1.581v2.108c0 0.873 0.708 1.581 1.581 1.581zM30.095 4.898c0.291 0 0.527 0.236 0.527 0.527s-0.236 0.527-0.527 0.527c-0.291 0-0.527-0.236-0.527-0.527s0.236-0.527 0.527-0.527zM3.22 7.006c0-0.291 0.236-0.527 0.527-0.527h21.078c0.291 0 0.527 0.236 0.527 0.527v2.213l-1.054 1.001v-2.161c0-0.291-0.236-0.527-0.527-0.527h-18.97c-0.291 0-0.527 0.236-0.527 0.527v13.174c0 0.291 0.236 0.527 0.527 0.527h18.97c0.291 0 0.527-0.236 0.527-0.527v-9.564l1.054-0.999v12.143h-22.132v-15.809zM7.963 13.856c-0.713-0.002-1.339 0.473-1.529 1.16s0.104 1.416 0.717 1.78c0.613 0.364 1.394 0.272 1.906-0.223l1.832 0.919c0.213 0.107 0.471 0.057 0.629-0.121l3.894-4.381 3.828 2.868c0.205 0.154 0.492 0.137 0.678-0.039l3.327-3.151v8.038h-17.916v-12.12h17.916v2.63l-3.728 3.531-3.86-2.894c-0.219-0.164-0.528-0.133-0.71 0.071l-3.947 4.441-1.476-0.738c0.011-0.063 0.018-0.127 0.020-0.191 0-0.873-0.708-1.581-1.581-1.581zM8.49 15.437c0 0.291-0.236 0.527-0.527 0.527s-0.527-0.236-0.527-0.527c0-0.291 0.236-0.527 0.527-0.527s0.527 0.236 0.527 0.527zM11.651 23.868h5.27v0.527c0 0.291-0.236 0.527-0.527 0.527h-4.216c-0.291 0-0.527-0.236-0.527-0.527v-0.527zM1.112 24.395c0-0.291 0.236-0.527 0.527-0.527h8.958v0.527c0 0.873 0.708 1.581 1.581 1.581h4.216c0.873 0 1.581-0.708 1.581-1.581v-0.527h8.958c0.291 0 0.527 0.236 0.527 0.527v2.108c0 0.291-0.236 0.527-0.527 0.527h-25.294c-0.291 0-0.527-0.236-0.527-0.527v-2.108z"></path>
</svg>
