<!-- Generated by IcoMoon.io -->
<svg version="1.1" xmlns="http://www.w3.org/2000/svg" width="32" height="32" viewBox="0 0 32 32">
<title>instagram</title>
<path fill="#afb1b8" d="M31.604 9.195c-0.072-1.637-0.337-2.763-0.716-3.738-0.391-1.035-0.993-1.962-1.782-2.733-0.771-0.782-1.704-1.391-2.727-1.776-0.981-0.379-2.101-0.644-3.738-0.716-1.649-0.078-2.173-0.096-6.356-0.096s-4.707 0.018-6.35 0.090c-1.637 0.072-2.763 0.337-3.738 0.716-1.035 0.391-1.962 0.993-2.733 1.782-0.782 0.771-1.39 1.703-1.776 2.727-0.379 0.981-0.644 2.101-0.716 3.738-0.078 1.649-0.096 2.173-0.096 6.356s0.018 4.707 0.090 6.35c0.072 1.637 0.337 2.763 0.716 3.738 0.391 1.035 0.999 1.962 1.782 2.733 0.771 0.782 1.703 1.39 2.727 1.776 0.981 0.379 2.101 0.644 3.738 0.716 1.643 0.072 2.167 0.090 6.35 0.090s4.707-0.018 6.35-0.090c1.637-0.072 2.763-0.337 3.738-0.716 2.071-0.801 3.708-2.438 4.508-4.508 0.379-0.981 0.644-2.101 0.716-3.738 0.072-1.643 0.090-2.167 0.090-6.35s-0.006-4.707-0.078-6.35zM28.83 21.775c-0.066 1.505-0.319 2.317-0.53 2.859-0.518 1.342-1.583 2.408-2.925 2.925-0.542 0.211-1.36 0.463-2.859 0.529-1.625 0.072-2.113 0.090-6.224 0.090s-4.605-0.018-6.224-0.090c-1.505-0.066-2.317-0.319-2.859-0.529-0.668-0.247-1.276-0.638-1.77-1.15-0.512-0.5-0.903-1.102-1.15-1.77-0.211-0.542-0.463-1.36-0.53-2.859-0.072-1.625-0.090-2.113-0.090-6.224s0.018-4.605 0.090-6.224c0.066-1.505 0.319-2.317 0.53-2.859 0.247-0.668 0.638-1.276 1.156-1.77 0.499-0.512 1.101-0.903 1.77-1.149 0.542-0.211 1.36-0.463 2.859-0.53 1.625-0.072 2.113-0.090 6.224-0.090 4.117 0 4.605 0.018 6.224 0.090 1.505 0.066 2.317 0.319 2.859 0.53 0.668 0.247 1.276 0.638 1.769 1.149 0.512 0.5 0.903 1.102 1.15 1.77 0.211 0.542 0.463 1.36 0.53 2.859 0.072 1.625 0.090 2.113 0.090 6.224s-0.018 4.593-0.090 6.218z"></path>
<path fill="#afb1b8" d="M16.286 7.63c-4.37 0-7.915 3.545-7.915 7.915s3.545 7.915 7.915 7.915c4.37 0 7.915-3.545 7.915-7.915s-3.545-7.915-7.915-7.915zM16.286 20.679c-2.835 0-5.134-2.299-5.134-5.134s2.3-5.134 5.134-5.134c2.835 0 5.134 2.299 5.134 5.134s-2.299 5.134-5.134 5.134z"></path>
<path fill="#afb1b8" d="M26.362 7.317c0 1.020-0.828 1.848-1.848 1.848s-1.848-0.827-1.848-1.848c0-1.021 0.827-1.848 1.848-1.848s1.848 0.827 1.848 1.848z"></path>
</svg>
