<!-- Generated by IcoMoon.io -->
<svg version="1.1" xmlns="http://www.w3.org/2000/svg" width="32" height="32" viewBox="0 0 32 32">
<title>linkedin</title>
<path fill="#afb1b8" d="M31.023 30.948v-0.001h0.008v-11.3c0-5.528-1.19-9.787-7.653-9.787-3.107 0-5.192 1.705-6.043 3.321h-0.090v-2.805h-6.128v20.571h6.381v-10.186c0-2.682 0.508-5.275 3.83-5.275 3.272 0 3.321 3.061 3.321 5.447v10.015h6.374z"></path>
<path fill="#afb1b8" d="M0.727 10.377h6.388v20.571h-6.388v-20.571z"></path>
<path fill="#afb1b8" d="M3.919 0.136c-2.043 0-3.7 1.657-3.7 3.7s1.657 3.735 3.7 3.735c2.043 0 3.7-1.692 3.7-3.735-0.001-2.043-1.659-3.7-3.7-3.7v0z"></path>
</svg>
