<!-- Generated by IcoMoon.io -->
<svg version="1.1" xmlns="http://www.w3.org/2000/svg" width="32" height="32" viewBox="0 0 32 32">
<title>twitter1</title>
<path fill="#afb1b8" d="M31.918 5.988c-1.146 0.503-2.367 0.836-3.64 0.998 1.31-0.782 2.309-2.011 2.779-3.491-1.221 0.728-2.569 1.242-4.006 1.529-1.159-1.234-2.812-1.999-4.614-1.999-3.497 0-6.313 2.839-6.313 6.318 0 0.501 0.042 0.982 0.146 1.44-5.252-0.256-9.898-2.773-13.020-6.607-0.545 0.946-0.865 2.028-0.865 3.193 0 2.188 1.127 4.127 2.806 5.25-1.015-0.019-2.010-0.314-2.854-0.778 0 0.019 0 0.044 0 0.069 0 3.070 2.19 5.619 5.061 6.207-0.514 0.141-1.075 0.208-1.656 0.208-0.404 0-0.813-0.023-1.196-0.108 0.818 2.502 3.141 4.341 5.902 4.4-2.149 1.681-4.878 2.694-7.832 2.694-0.518 0-1.015-0.023-1.512-0.087 2.798 1.805 6.114 2.835 9.69 2.835 11.624 0 17.979-9.629 17.979-17.975 0-0.279-0.010-0.549-0.023-0.817 1.254-0.89 2.307-2.001 3.166-3.28z"></path>
</svg>
