<!-- Generated by IcoMoon.io -->
<svg version="1.1" xmlns="http://www.w3.org/2000/svg" width="32" height="32" viewBox="0 0 32 32">
<title>astronaut</title>
<path fill="#2196f3" d="M31.566 4.739c-0.061-0.188-0.224-0.325-0.42-0.354l-1.864-0.271-0.834-1.689c-0.175-0.356-0.758-0.356-0.933 0l-0.834 1.689-1.864 0.271c-0.196 0.029-0.358 0.165-0.42 0.354-0.061 0.188-0.010 0.395 0.132 0.533l1.349 1.315-0.318 1.856c-0.033 0.195 0.047 0.392 0.207 0.509 0.162 0.118 0.373 0.132 0.548 0.040l1.667-0.877 1.667 0.877c0.076 0.040 0.16 0.060 0.242 0.060 0.108 0 0.215-0.033 0.306-0.099 0.16-0.117 0.24-0.314 0.207-0.509l-0.318-1.856 1.349-1.315c0.141-0.138 0.192-0.345 0.131-0.533zM29.163 6.034c-0.122 0.119-0.178 0.292-0.149 0.46l0.186 1.087-0.976-0.513c-0.076-0.040-0.159-0.060-0.242-0.060s-0.166 0.020-0.242 0.060l-0.976 0.513 0.186-1.087c0.029-0.169-0.027-0.341-0.149-0.46l-0.79-0.77 1.092-0.159c0.17-0.024 0.316-0.131 0.392-0.285l0.488-0.989 0.488 0.989c0.076 0.153 0.222 0.26 0.392 0.285l1.092 0.159-0.789 0.77z"></path>
<path fill="#2196f3" d="M25.868 20.346h-1.041v1.041h1.041v-1.041z"></path>
<path fill="#2196f3" d="M25.868 22.427h-1.041v1.041h1.041v-1.041z"></path>
<path fill="#2196f3" d="M26.909 21.387h-1.041v1.041h1.041v-1.041z"></path>
<path fill="#2196f3" d="M24.827 21.387h-1.041v1.041h1.041v-1.041z"></path>
<path fill="#2196f3" d="M22.226 26.069h-1.041v1.041h1.041v-1.041z"></path>
<path fill="#2196f3" d="M22.226 28.15h-1.041v1.041h1.041v-1.041z"></path>
<path fill="#2196f3" d="M23.266 27.11h-1.041v1.041h1.041v-1.041z"></path>
<path fill="#2196f3" d="M21.185 27.11h-1.041v1.041h1.041v-1.041z"></path>
<path fill="#2196f3" d="M15.982 23.988h-1.041v1.041h1.041v-1.041z"></path>
<path fill="#2196f3" d="M15.982 26.069h-1.041v1.041h1.041v-1.041z"></path>
<path fill="#2196f3" d="M17.023 25.029h-1.041v1.041h1.041v-1.041z"></path>
<path fill="#2196f3" d="M14.942 25.029h-1.041v1.041h1.041v-1.041z"></path>
<path fill="#2196f3" d="M6.097 6.298h-1.041v1.041h1.041v-1.041z"></path>
<path fill="#2196f3" d="M6.097 8.379h-1.041v1.041h1.041v-1.041z"></path>
<path fill="#2196f3" d="M7.137 7.338h-1.041v1.041h1.041v-1.041z"></path>
<path fill="#2196f3" d="M5.056 7.338h-1.041v1.041h1.041v-1.041z"></path>
<path fill="#212121" d="M24.484 14.139c-0.28-0.378-0.692-0.622-1.159-0.687-0.469-0.067-0.932 0.057-1.307 0.343l-1.222 0.937-1.851 1.382-1.325-0.528c2.362-1.060 4.013-3.423 4.013-6.166 0-3.73-3.046-6.764-6.791-6.764s-6.791 3.034-6.791 6.764c0 1.352 0.404 2.609 1.093 3.667l-2.696-0.023c-0.002 0-0.003 0-0.005 0-0.008 0-0.015 0.004-0.023 0.005-0.052 0.002-0.102 0.012-0.151 0.030-0.012 0.005-0.025 0.007-0.037 0.013-0.006 0.003-0.013 0.003-0.019 0.006l-3.154 1.557c-0.001 0-0.001 0-0.001 0l-1.847 0.888c-0.020 0.009-0.041 0.021-0.061 0.034-0.736 0.49-0.987 1.453-0.584 2.239 0.215 0.418 0.581 0.726 1.030 0.867 0.173 0.054 0.35 0.081 0.526 0.081 0.283 0 0.562-0.069 0.819-0.206l1.354-0.72 2.209-1.14 1.324-0.008-5.309 5.283c-0.001 0.001-0.001 0.001-0.002 0.001l-1.306 1.301c-0.309 0.307-0.478 0.714-0.478 1.149s0.17 0.842 0.478 1.15c0.317 0.315 0.734 0.473 1.15 0.473s0.833-0.158 1.151-0.473l1.282-1.277 1.698-1.268 0.879 0.875-1.719 1.711c-0 0.001-0.001 0.001-0.002 0.001l-1.306 1.301c-0.309 0.307-0.478 0.714-0.478 1.149s0.17 0.842 0.478 1.15c0.317 0.315 0.734 0.473 1.151 0.473s0.834-0.158 1.151-0.473l3.397-3.382c0.001-0.001 0.001-0.001 0.001-0.002l0.985-0.976-0.004-0.004c0.006-0.006 0.015-0.008 0.021-0.015l5.040-5.52 3.386 0.482c0.024 0.004 0.049 0.005 0.073 0.005 0.063 0 0.124-0.015 0.183-0.037 0.017-0.006 0.032-0.015 0.048-0.023 0.019-0.009 0.038-0.015 0.056-0.027l3.135-2.081c0.011-0.008 0.018-0.020 0.029-0.029 0.012-0.010 0.028-0.014 0.040-0.025l1.24-1.162c0.645-0.605 0.734-1.595 0.207-2.304zM2.452 17.661c-0.169 0.091-0.361 0.109-0.545 0.050-0.182-0.057-0.33-0.181-0.416-0.349-0.157-0.306-0.066-0.678 0.209-0.88l1.282-0.617 0.438 1.28-0.968 0.515zM5.863 15.878l-1.51 0.78-0.428-1.252 1.977-0.976-0.039 1.448zM20.593 9.42c0 0.896-0.214 1.741-0.584 2.497l-4.079-1.853c-0.043-0.559-0.333-1.049-0.769-1.354l1.428-4.741c2.32 0.738 4.004 2.902 4.004 5.451zM9.093 9.42c0-3.156 2.58-5.723 5.75-5.723 0.247 0 0.488 0.021 0.727 0.051l-1.397 4.637c-0.019-0.001-0.036-0.006-0.056-0.006-1.007 0-1.827 0.817-1.827 1.821s0.819 1.821 1.827 1.821c0.677 0 1.263-0.374 1.579-0.921l3.768 1.712c-1.048 1.411-2.726 2.331-4.621 2.331-3.171 0-5.75-2.568-5.75-5.723zM14.903 10.2c0 0.43-0.353 0.78-0.786 0.78s-0.786-0.35-0.786-0.78c0-0.43 0.353-0.78 0.786-0.78s0.786 0.35 0.786 0.78zM2.778 24.857c-0.23 0.228-0.604 0.228-0.833 0.001-0.111-0.111-0.172-0.257-0.172-0.413s0.061-0.301 0.172-0.411l0.939-0.935 0.83 0.827-0.935 0.931zM5.913 28.499c-0.23 0.228-0.604 0.229-0.834 0.001-0.111-0.111-0.172-0.257-0.172-0.413s0.061-0.301 0.172-0.411l0.939-0.936 0.831 0.827-0.936 0.932zM9.31 25.115c-0.001 0-0.001 0-0.002 0.001l-1.722 1.717-0.831-0.827 1.72-1.712c0 0 0 0 0-0s0.001-0.001 0.002-0.001c0.039-0.039 0.063-0.086 0.087-0.132 0.007-0.014 0.020-0.025 0.025-0.039 0.016-0.040 0.019-0.083 0.025-0.125 0.003-0.024 0.014-0.046 0.014-0.071 0-0.035-0.012-0.069-0.020-0.103-0.006-0.031-0.006-0.063-0.018-0.093-0.020-0.049-0.054-0.092-0.089-0.134-0.010-0.011-0.014-0.026-0.024-0.037 0 0 0 0-0.001 0s-0.001-0.002-0.001-0.002l-1.568-1.561c-0.017-0.017-0.038-0.023-0.057-0.037-0.028-0.021-0.054-0.041-0.085-0.056-0.030-0.015-0.060-0.023-0.091-0.032-0.033-0.009-0.066-0.017-0.1-0.019-0.032-0.002-0.061 0.001-0.093 0.005-0.035 0.004-0.068 0.009-0.101 0.020-0.033 0.010-0.062 0.027-0.092 0.044-0.019 0.011-0.041 0.015-0.059 0.028l-1.73 1.291-0.879-0.875 2.34-2.328 4.254 4.184-0.905 0.896zM15.962 18.27c-0.015-0.002-0.029 0.004-0.044 0.003-0.038-0.002-0.074 0.001-0.112 0.007-0.030 0.005-0.058 0.011-0.086 0.021-0.033 0.011-0.063 0.027-0.094 0.046-0.029 0.018-0.056 0.036-0.081 0.060-0.012 0.011-0.028 0.016-0.039 0.029l-4.583 5.020-4.222-4.153 2.764-2.749c0.203-0.203 0.204-0.532 0.002-0.736-0.102-0.103-0.237-0.153-0.372-0.152v-0l-2.164 0.013 0.027-1.568 3.028 0.026c1.234 1.262 2.955 2.049 4.86 2.049 0.427 0 0.843-0.044 1.248-0.12 0.039 0.031 0.078 0.063 0.126 0.083l2.351 0.937 0.149 0.74 0.174 0.864-2.929-0.417zM19.904 18.444l-0.305-1.52 1.411-1.054 0.924 1.226-2.029 1.348zM23.566 15.682l-0.817 0.766-0.908-1.206 0.811-0.622c0.151-0.117 0.342-0.164 0.53-0.139 0.188 0.027 0.355 0.125 0.468 0.277 0.211 0.285 0.175 0.682-0.083 0.924z"></path>
<path fill="#212121" d="M13.643 18.416l-2.091-2.081c-0.202-0.202-0.531-0.202-0.734 0l-2.090 2.081c-0.098 0.098-0.153 0.23-0.153 0.369s0.055 0.271 0.153 0.369l2.090 2.081c0.101 0.101 0.235 0.151 0.367 0.151s0.266-0.050 0.367-0.151l2.091-2.081c0.098-0.098 0.153-0.23 0.153-0.369s-0.055-0.271-0.153-0.369zM11.186 20.132l-1.353-1.347 1.353-1.347 1.353 1.347-1.353 1.347z"></path>
<path fill="#212121" d="M17.118 5.272l-0.251 1.010c0.069 0.017 1.695 0.441 1.695 2.096h1.041c-0-1.968-1.625-2.893-2.484-3.107z"></path>
<path fill="#212121" d="M19.602 9.42h-1.041v1.041h1.041v-1.041z"></path>
</svg>
