<!-- Generated by IcoMoon.io -->
<svg version="1.1" xmlns="http://www.w3.org/2000/svg" width="32" height="32" viewBox="0 0 32 32">
<title>clock</title>
<path fill="#212121" d="M31.104 15.243c-0.002-8.356-6.777-15.128-15.133-15.126s-15.128 6.777-15.126 15.133c0.001 6.582 4.258 12.407 10.528 14.409 0.060 0.019 0.122 0.028 0.185 0.028 0.119-0 0.236-0.032 0.339-0.093 0.133-0.079 0.233-0.204 0.28-0.352l3.821-12.11c1.045-0.005 1.887-0.857 1.881-1.901s-0.856-1.887-1.901-1.882c-0.281 0.001-0.558 0.066-0.811 0.189l-5.048-5.048c-0.251-0.242-0.649-0.235-0.891 0.015-0.236 0.244-0.236 0.632 0 0.876l5.045 5.051c-0.387 0.79-0.166 1.744 0.53 2.283l-3.64 11.539c-7.195-2.65-10.878-10.631-8.228-17.825s10.631-10.878 17.825-8.228c7.195 2.65 10.878 10.631 8.228 17.825-1.295 3.515-3.955 6.358-7.377 7.882l-0.393-1.853c-0.072-0.341-0.407-0.558-0.747-0.486-0.107 0.023-0.207 0.073-0.289 0.146l-3.793 3.386c-0.26 0.231-0.283 0.63-0.052 0.89 0.075 0.084 0.172 0.147 0.28 0.182l4.843 1.546c0.331 0.106 0.686-0.076 0.793-0.407 0.034-0.105 0.039-0.216 0.017-0.324l-0.387-1.818c5.599-2.361 9.235-7.851 9.222-13.928zM15.975 14.612c0.348 0 0.63 0.282 0.63 0.63s-0.282 0.63-0.63 0.63c-0.348 0-0.63-0.282-0.63-0.63s0.282-0.63 0.63-0.63zM18.051 29.306l2.159-1.926 0.596 2.808-2.755-0.882z"></path>
<path fill="#2196f3" d="M15.344 3.265v1.261c0 0.348 0.282 0.63 0.63 0.63s0.63-0.282 0.63-0.63v-1.261c0-0.348-0.282-0.63-0.63-0.63s-0.63 0.282-0.63 0.63z"></path>
<path fill="#2196f3" d="M3.997 14.612c-0.348 0-0.63 0.282-0.63 0.63s0.282 0.63 0.63 0.63h1.261c0.348 0 0.63-0.282 0.63-0.63s-0.282-0.63-0.63-0.63h-1.261z"></path>
<path fill="#2196f3" d="M27.952 15.873c0.348 0 0.63-0.282 0.63-0.63s-0.282-0.63-0.63-0.63h-1.261c-0.348 0-0.63 0.282-0.63 0.63s0.282 0.63 0.63 0.63h1.261z"></path>
</svg>
