<!-- Generated by IcoMoon.io -->
<svg version="1.1" xmlns="http://www.w3.org/2000/svg" width="53" height="32" viewBox="0 0 53 32">
<title>logo4</title>
<path fill="#e5e5e5" d="M0 0h52.706v32h-52.706v-32z"></path>
<path fill="#fff" d="M-537.098-1575.529h1003.922v1834.667h-1003.922v-1834.667z"></path>
<path fill="none" stroke="#2196f3" stroke-linejoin="miter" stroke-linecap="butt" stroke-miterlimit="4" stroke-width="0.6275" d="M-23.216-14.745h101.647c1.213 0 2.196 0.983 2.196 2.196v51.451c0 1.213-0.983 2.196-2.196 2.196h-101.647c-1.213 0-2.196-0.983-2.196-2.196v-51.451c0-1.213 0.983-2.196 2.196-2.196z"></path>
<path fill="#afb1b8" d="M10.292 8.051h-0.002c-1.419 0-2.57 1.121-2.57 2.505v0.002c0 1.383 1.151 2.505 2.57 2.505h0.002c1.419 0 2.57-1.121 2.57-2.505v-0.002c0-1.383-1.151-2.505-2.57-2.505z"></path>
<path fill="#afb1b8" d="M29.262 7.25c-0.004-1.921-0.789-3.763-2.183-5.122s-3.283-2.124-5.255-2.128v0c-1.972 0.004-3.863 0.768-5.257 2.127s-2.18 3.201-2.184 5.123v10.595c0 0 14.877-1.615 14.879-10.593v-0.002z"></path>
<path fill="#afb1b8" d="M2.51 21.322c0.004 1.337 0.55 2.618 1.52 3.563s2.284 1.478 3.656 1.482c1.372-0.004 2.686-0.537 3.656-1.482s1.516-2.226 1.521-3.562v-7.372c0 0-10.352 1.124-10.352 7.37zM7.686 22.643c-0.268 0-0.53-0.077-0.753-0.223s-0.397-0.351-0.499-0.593-0.129-0.507-0.077-0.763c0.052-0.256 0.181-0.492 0.371-0.676s0.431-0.311 0.694-0.361 0.535-0.025 0.783 0.075c0.248 0.1 0.459 0.269 0.608 0.486s0.228 0.473 0.228 0.734c0.001 0.174-0.034 0.346-0.102 0.507s-0.168 0.307-0.293 0.43c-0.126 0.123-0.276 0.221-0.44 0.288s-0.341 0.101-0.52 0.101v-0.005z"></path>
</svg>
